<svg width="100" height="100" viewBox="0 0 100 100" fill="none" xmlns="http://www.w3.org/2000/svg">
<path d="M38 29L38.7829 27.7205C38.32 27.4373 37.7401 27.4261 37.2667 27.6915C36.7932 27.9568 36.5 28.4572 36.5 29H38ZM38 70.5H36.5C36.5 71.0456 36.7963 71.5483 37.2737 71.8125C37.7512 72.0766 38.3344 72.0607 38.7967 71.7709L38 70.5ZM71.5 49.5L72.2967 50.7709C72.7367 50.4951 73.0028 50.0112 73 49.4919C72.9972 48.9726 72.7259 48.4916 72.2829 48.2206L71.5 49.5ZM97 50C97 75.9574 75.9574 97 50 97V100C77.6142 100 100 77.6142 100 50H97ZM50 97C24.0426 97 3 75.9574 3 50H0C0 77.6142 22.3858 100 50 100V97ZM3 50C3 24.0426 24.0426 3 50 3V0C22.3858 0 0 22.3858 0 50H3ZM50 3C75.9574 3 97 24.0426 97 50H100C100 22.3858 77.6142 0 50 0V3ZM36.5 29V70.5H39.5V29H36.5ZM38.7967 71.7709L72.2967 50.7709L70.7033 48.2291L37.2033 69.2291L38.7967 71.7709ZM72.2829 48.2206L38.7829 27.7205L37.2171 30.2795L70.7171 50.7794L72.2829 48.2206Z" fill="white"/>
</svg>
