<svg width="36" height="36" viewBox="0 0 36 36" fill="none" xmlns="http://www.w3.org/2000/svg">
<rect x="0.5" y="0.5" width="35" height="35" rx="17.5" stroke="white"/>
<path d="M23.2715 15.2384C23.2788 15.3578 23.2788 15.4771 23.2788 15.5975C23.2788 19.2675 20.8023 23.5 16.2738 23.5V23.4978C14.9361 23.5 13.6261 23.0677 12.5 22.2527C12.6945 22.2791 12.89 22.2923 13.086 22.2928C14.1946 22.2939 15.2715 21.8743 16.1436 21.1016C15.0901 21.0791 14.1663 20.3042 13.8436 19.1729C14.2126 19.2532 14.5929 19.2367 14.9551 19.125C13.8065 18.8632 12.9802 17.7248 12.9802 16.4027V16.3675C13.3224 16.5825 13.7056 16.7019 14.0976 16.7151C13.0158 15.8995 12.6823 14.276 13.3356 13.0067C14.5856 14.7418 16.4298 15.7966 18.4096 15.9083C18.2112 14.9436 18.4822 13.9328 19.1218 13.2547C20.1134 12.2032 21.6729 12.2571 22.6051 13.3751C23.1564 13.2525 23.6849 13.0243 24.1685 12.7009C23.9847 13.3438 23.6001 13.8899 23.0862 14.2369C23.5742 14.172 24.051 14.0246 24.5 13.7997C24.1695 14.3585 23.7531 14.8452 23.2715 15.2384Z" fill="white"/>
</svg>
