<svg width="36" height="36" viewBox="0 0 36 36" fill="none" xmlns="http://www.w3.org/2000/svg">
<rect x="0.5" y="0.5" width="35" height="35" rx="17.5" stroke="white"/>
<path d="M10.9306 22.045C12.288 20.0587 14.9093 19.8932 16.2004 20.0727C15.8414 19.6726 14.9363 18.9279 15.5749 17.7003C12.6606 18.0725 11.7292 16.2105 11.5962 14.7483C11.3301 12.2932 13.4057 10.5279 15.5348 10.5H20.2456C20.0859 10.6519 19.3007 11.1899 19.1144 11.1899L17.8769 11.2035C21.0307 14.2794 17.9699 16.8589 17.3443 17.3965C16.0802 18.9827 20.0458 19.7689 19.8329 22.4587C19.8329 24.8999 17.8503 26.5 14.7497 26.5C11.3031 26.4864 9.65328 24.2659 10.9306 22.045ZM17.8371 25.0106C19.0747 24.0312 18.782 22.583 17.8237 21.6173C17.2514 21.0381 16.5595 20.4864 15.0956 20.6655C13.3787 20.8726 12.128 21.7276 12.1947 23.0655C12.5538 25.9072 16.5063 25.9759 17.8368 24.9966L17.8371 25.0106ZM16.9988 16.6658C18.4226 15.4518 17.1052 11.2178 15.1623 11.2178C13.9247 11.2178 13.2861 12.1417 13.2325 13.4523C13.1396 15.8795 15.2822 18.128 16.9988 16.6658ZM23.2929 18.2104L21.1506 18.2244V17.1071H23.2667V14.9142H24.3446V17.1075L26.4869 17.1211L26.5 18.2247H24.3446V20.4316L23.2798 20.4456L23.2929 18.2104Z" fill="white"/>
</svg>
