<svg width="36" height="36" viewBox="0 0 36 36" fill="none" xmlns="http://www.w3.org/2000/svg">
<rect x="0.5" y="0.5" width="35" height="35" rx="17.5" stroke="white"/>
<path d="M19.1509 25.4304V18.903L21.7209 18.903L22.254 16H19.1509V14.9733C19.1509 14.2062 19.3014 13.6752 19.6466 13.3359C19.9917 12.9966 20.5316 12.8491 21.3105 12.8491C21.5076 12.8491 21.6891 12.8511 21.8501 12.855C22.0843 12.8607 22.2751 12.8705 22.408 12.8845V10.2529C22.3549 10.2381 22.2922 10.2234 22.222 10.2088C22.0629 10.1759 21.8651 10.1442 21.6524 10.1164C21.2081 10.0582 20.699 10.0168 20.3428 10.0168C18.9044 10.0168 17.8173 10.3246 17.0585 10.962C16.1427 11.7313 15.705 12.9808 15.705 14.7491V16H13.746V18.903H15.705V25.2202C16.0567 25.4304 18.3958 25.5 19.1509 25.4304Z" fill="white"/>
</svg>
