<svg width="36" height="36" viewBox="0 0 36 36" fill="none" xmlns="http://www.w3.org/2000/svg">
<rect x="0.5" y="0.5" width="35" height="35" rx="17.5" stroke="white"/>
<path fill-rule="evenodd" clip-rule="evenodd" d="M25.6485 13.3383C25.8967 13.5821 26.075 13.8853 26.1655 14.2174C26.5 15.4434 26.5 18 26.5 18C26.5 18 26.5 20.5566 26.1655 21.7826C26.075 22.1147 25.8967 22.4179 25.6485 22.6617C25.4002 22.9055 25.0907 23.0814 24.7509 23.1718C23.5 23.5 18.5 23.5 18.5 23.5C18.5 23.5 13.5 23.5 12.2491 23.1718C11.9093 23.0814 11.5998 22.9055 11.3515 22.6617C11.1033 22.4179 10.925 22.1147 10.8345 21.7826C10.5 20.5566 10.5 18 10.5 18C10.5 18 10.5 15.4434 10.8345 14.2174C10.925 13.8853 11.1033 13.5821 11.3515 13.3383C11.5998 13.0945 11.9093 12.9186 12.2491 12.8282C13.5 12.5 18.5 12.5 18.5 12.5C18.5 12.5 23.5 12.5 24.7509 12.8282C25.0907 12.9186 25.4002 13.0945 25.6485 13.3383ZM21.0455 18L16.8636 15.6785V20.3216L21.0455 18Z" fill="white"/>
</svg>
