<svg width="36" height="36" viewBox="0 0 36 36" fill="none" xmlns="http://www.w3.org/2000/svg">
<rect x="0.5" y="0.5" width="35" height="35" rx="17.5" stroke="white"/>
<path fill-rule="evenodd" clip-rule="evenodd" d="M17.5 26.5C21.9183 26.5 25.5 22.9183 25.5 18.5C25.5 14.0817 21.9183 10.5 17.5 10.5C13.0817 10.5 9.5 14.0817 9.5 18.5C9.5 22.9183 13.0817 26.5 17.5 26.5ZM19.2351 25.0249C18.6814 25.1718 18.0999 25.25 17.5 25.25C16.5922 25.25 15.7263 25.0708 14.9356 24.7458C15.6859 21.9765 17.7606 19.9931 20.1373 19.1097C20.5495 21.1074 20.2424 23.2498 19.2351 25.0249ZM21.0117 24.2657C21.6563 22.51 21.7833 20.5761 21.3882 18.7526C22.342 18.56 23.3149 18.5423 24.2465 18.7181C24.1719 21.0686 22.8956 23.1159 21.0117 24.2657ZM24.1588 17.388C23.1274 17.2367 22.0654 17.2809 21.0283 17.5024C20.8274 16.9387 20.5737 16.3956 20.2716 15.8799C21.124 15.3876 21.9012 14.7658 22.5666 14.0399C23.3823 14.9657 23.9481 16.1168 24.1588 17.388ZM21.6196 13.1525C21.0194 13.8096 20.3133 14.3684 19.5388 14.804C19.016 14.1395 18.4112 13.5413 17.7369 13.0276L17.7206 13.0152L17.7037 13.004C17.7036 13.0039 17.7022 13.0029 17.6991 13.0008C17.6955 12.9982 17.6907 12.9948 17.6845 12.9903C17.6721 12.9813 17.6567 12.9698 17.6382 12.956C17.6171 12.9403 17.5961 12.9244 17.5734 12.9073L17.5688 12.9038C17.5505 12.89 17.5311 12.8753 17.5099 12.8594C17.4639 12.8248 17.4135 12.7872 17.3672 12.7541C17.3349 12.7309 17.2884 12.6981 17.2409 12.6692L17.2107 12.6483C17.149 12.6055 17.0561 12.5412 16.9718 12.4894C16.893 12.4342 16.7866 12.3713 16.7168 12.3305C16.6493 12.2909 16.5767 12.2495 16.5315 12.2237L16.4969 12.2039C16.4886 12.199 16.4813 12.195 16.4783 12.1933L16.4778 12.193C16.4725 12.1901 16.4667 12.1869 16.4614 12.184L16.4543 12.1801C16.4442 12.1745 16.4342 12.169 16.4237 12.1631C16.4117 12.1565 16.402 12.151 16.3949 12.1468L16.39 12.1434L16.3728 12.1329C16.3105 12.0948 16.2455 12.06 16.2103 12.0412L16.1973 12.0342L16.1822 12.0261L16.1667 12.0188C16.1333 12.003 16.0825 11.9788 16.0254 11.9515L16.024 11.9509C16.0061 11.9424 15.9874 11.9335 15.9686 11.9245C16.4606 11.8103 16.9733 11.75 17.5 11.75C19.051 11.75 20.4798 12.2731 21.6196 13.1525ZM14.1908 12.6154C13.1896 13.1797 12.3469 13.992 11.7461 14.969C12.4608 15.3315 13.2285 15.5876 14.0193 15.7284L14.021 15.7287L14.0227 15.7291C15 15.9084 16.0075 15.9036 16.9938 15.7258C17.4463 15.6441 17.8907 15.5226 18.3219 15.3649C17.9166 14.8855 17.4614 14.4506 16.9634 14.0698C16.9293 14.0461 16.8915 14.0181 16.8606 13.9949C16.8372 13.9774 16.8097 13.9567 16.7826 13.9362L16.7819 13.9357C16.7639 13.9221 16.7461 13.9087 16.7298 13.8965C16.6853 13.863 16.6448 13.8328 16.6113 13.8088C16.5895 13.7932 16.577 13.7848 16.5718 13.7813C16.5699 13.78 16.569 13.7794 16.5691 13.7794L16.5499 13.7686L16.5274 13.7533C16.4942 13.7308 16.4647 13.7104 16.4377 13.6917L16.4374 13.6915C16.3781 13.6505 16.3306 13.6176 16.2824 13.589L16.2508 13.5702L16.2223 13.5487C16.2232 13.5493 16.2227 13.549 16.2206 13.5476L16.2203 13.5474C16.2153 13.5441 16.202 13.5352 16.1775 13.52C16.1445 13.4996 16.1041 13.4755 16.0609 13.4502C15.9997 13.4143 15.9439 13.3825 15.8998 13.3573L15.8946 13.3543C15.8761 13.3438 15.8599 13.3345 15.8463 13.3267L15.8449 13.3259L15.8343 13.32L15.8292 13.3172C15.8192 13.3117 15.8058 13.3044 15.7922 13.2968C15.7762 13.2879 15.7569 13.277 15.7381 13.266C15.7278 13.26 15.7086 13.2487 15.6871 13.2347C15.6606 13.219 15.6323 13.2037 15.5985 13.1856L15.597 13.1848C15.5567 13.1657 15.5064 13.1417 15.4531 13.1163C15.3527 13.0684 15.2414 13.0154 15.1641 12.9794L15.1558 12.9755L15.1209 12.9581C14.9985 12.9013 14.852 12.8458 14.6879 12.7836L14.6873 12.7834C14.6516 12.7698 14.6151 12.756 14.5777 12.7417C14.4765 12.7054 14.3714 12.6723 14.2614 12.6377L14.2611 12.6376C14.2379 12.6303 14.2145 12.6229 14.1908 12.6154ZM11.176 16.1349C11.9996 16.5505 12.8821 16.8438 13.79 17.0056C14.9266 17.214 16.0911 17.2071 17.2243 17.0027C17.8694 16.8863 18.4991 16.7008 19.1029 16.4536C19.3717 16.9004 19.5977 17.3712 19.7776 17.86C17.0662 18.8366 14.7001 21.0431 13.7643 24.1229C11.9473 22.9133 10.75 20.8465 10.75 18.5C10.75 17.6679 10.9006 16.8709 11.176 16.1349Z" fill="white"/>
</svg>
