<svg width="36" height="36" viewBox="0 0 36 36" fill="none" xmlns="http://www.w3.org/2000/svg">
<rect x="0.5" y="0.5" width="35" height="35" rx="17.5" stroke="white"/>
<path d="M21.997 14.8888C21.5003 14.8898 21.0964 14.4876 21.0955 13.9909C21.0945 13.4942 21.4967 13.0904 21.9936 13.0894C22.4905 13.0884 22.8944 13.4908 22.8954 13.9875C22.8961 14.4842 22.4939 14.8879 21.997 14.8888Z" fill="white"/>
<path fill-rule="evenodd" clip-rule="evenodd" d="M18.0072 21.8506C15.8807 21.8548 14.1532 20.1343 14.1491 18.0073C14.1449 15.8808 15.8658 14.153 17.9924 14.1489C20.1193 14.1447 21.8471 15.8662 21.8512 17.9925C21.8553 20.1195 20.1339 21.8465 18.0072 21.8506ZM17.995 15.5002C16.6148 15.5027 15.4975 16.6241 15.4999 18.0046C15.5026 19.3854 16.6243 20.5024 18.0045 20.4998C19.3852 20.4971 20.5026 19.3759 20.4999 17.9951C20.4972 16.6144 19.3755 15.4976 17.995 15.5002Z" fill="white"/>
<path fill-rule="evenodd" clip-rule="evenodd" d="M13.0745 10.904C13.5508 10.7174 14.0958 10.5896 14.8938 10.5519C15.6938 10.5135 15.9492 10.5048 17.9855 10.5009C20.0224 10.497 20.2778 10.5048 21.0777 10.5403C21.876 10.5748 22.4213 10.7007 22.8985 10.8853C23.3923 11.0756 23.8112 11.3317 24.2287 11.7475C24.6462 12.1638 24.9033 12.5813 25.096 13.0743C25.2824 13.5511 25.4102 14.0957 25.4481 14.8942C25.486 15.6939 25.4952 15.949 25.4991 17.9857C25.503 20.022 25.4947 20.2777 25.4598 21.0781C25.425 21.8759 25.2994 22.4214 25.1147 22.8985C24.9239 23.3922 24.6683 23.8112 24.2525 24.2287C23.8367 24.6464 23.4188 24.9032 22.9257 25.0962C22.449 25.2823 21.9044 25.4102 21.1064 25.4483C20.3064 25.4862 20.0511 25.4952 18.014 25.4991C15.9779 25.503 15.7225 25.4952 14.9225 25.46C14.1243 25.425 13.5787 25.2993 13.1017 25.1149C12.6079 24.9239 12.189 24.6685 11.7715 24.2525C11.3538 23.8365 11.0965 23.4187 10.904 22.9257C10.7174 22.4492 10.5901 21.9043 10.5519 21.1066C10.5138 20.3063 10.5048 20.0507 10.5009 18.0143C10.497 15.9777 10.505 15.7226 10.54 14.9226C10.5752 14.1241 10.7004 13.5788 10.8851 13.1013C11.0758 12.6077 11.3315 12.1891 11.7477 11.7713C12.1635 11.3539 12.5815 11.0963 13.0745 10.904ZM13.5885 23.8549C13.8531 23.9567 14.2501 24.0782 14.9813 24.1101C15.7725 24.1443 16.0095 24.1519 18.0115 24.148C20.0144 24.1443 20.2513 24.1358 21.0422 24.0987C21.7727 24.0639 22.1698 23.9409 22.4337 23.8379C22.7838 23.7011 23.0332 23.5376 23.2951 23.2754C23.5571 23.0122 23.7191 22.7621 23.8547 22.412C23.9568 22.1471 24.0781 21.7498 24.1099 21.0186C24.1446 20.2278 24.1519 19.9907 24.148 17.9881C24.1444 15.986 24.1359 15.7488 24.0982 14.9578C24.0637 14.2271 23.941 13.8301 23.8377 13.5664C23.7009 13.2157 23.5379 12.9669 23.2749 12.7047C23.012 12.4425 22.762 12.2809 22.4113 12.1453C22.1472 12.043 21.7496 11.922 21.0189 11.8902C20.2277 11.8554 19.9905 11.8484 17.988 11.8523C15.9859 11.8561 15.749 11.8642 14.958 11.9016C14.2271 11.9363 13.8305 12.059 13.5661 12.1623C13.2162 12.2991 12.9669 12.4617 12.7047 12.7249C12.4429 12.988 12.2809 13.2376 12.1453 13.5885C12.0437 13.8529 11.9215 14.2505 11.8901 14.9812C11.8556 15.7724 11.8483 16.0096 11.8522 18.0117C11.8559 20.0143 11.8644 20.2514 11.9015 21.0419C11.9358 21.7731 12.0595 22.1697 12.1623 22.4343C12.2991 22.784 12.4622 23.0333 12.7248 23.2955C12.988 23.5568 13.238 23.7193 13.5885 23.8549Z" fill="white"/>
</svg>
